<svg width="100%" viewBox="0 0 680 985" xmlns="http://www.w3.org/2000/svg" role="img">
<title>Modèle Conceptuel de Données — Projet JEFF_TFC_APP</title>
<desc>MCD MERISE adapté au projet JEFF_TFC_APP : 17 entités, associations et cardinalités</desc>

<!-- ═══════════════════════════════════════════════
     GROUPE 1 — Gestion des utilisateurs
═══════════════════════════════════════════════ -->
<text x="340" y="18" text-anchor="middle" font-style="italic" font-family="Arial,sans-serif" font-size="12" fill="#3D3D3A">Groupe 1 — Gestion des utilisateurs</text>

<!-- UTILISATEUR -->
<rect x="255" y="28" width="170" height="72" rx="6" fill="#EEEDFE" stroke="#534AB7" stroke-width="0.5"/>
<text x="340" y="50" text-anchor="middle" dominant-baseline="central" font-family="Arial,sans-serif" font-size="13" font-weight="500" fill="#3C3489">UTILISATEUR</text>
<line x1="255" y1="62" x2="425" y2="62" stroke="#3D3D3A" stroke-width="0.5"/>
<text x="340" y="75" text-anchor="middle" font-family="Arial,sans-serif" font-size="11" fill="#534AB7">id_utilisateur, identifiant</text>
<text x="340" y="89" text-anchor="middle" font-family="Arial,sans-serif" font-size="11" fill="#534AB7">email, role, est_actif</text>

<!-- ELEVE -->
<rect x="20" y="163" width="150" height="97" rx="6" fill="#EEEDFE" stroke="#534AB7" stroke-width="0.5"/>
<text x="95" y="184" text-anchor="middle" dominant-baseline="central" font-family="Arial,sans-serif" font-size="14" font-weight="500" fill="#3C3489">ELEVE</text>
<line x1="20" y1="197" x2="170" y2="197" stroke="#3D3D3A" stroke-width="0.5"/>
<text x="95" y="211" text-anchor="middle" font-family="Arial,sans-serif" font-size="11" fill="#534AB7">id_eleve, matricule</text>
<text x="95" y="225" text-anchor="middle" font-family="Arial,sans-serif" font-size="11" fill="#534AB7">prenom, nom, postnom</text>
<text x="95" y="239" text-anchor="middle" font-family="Arial,sans-serif" font-size="11" fill="#534AB7">date_naissance, sexe</text>

<!-- ENSEIGNANT -->
<rect x="255" y="163" width="170" height="80" rx="6" fill="#EEEDFE" stroke="#534AB7" stroke-width="0.5"/>
<text x="340" y="184" text-anchor="middle" dominant-baseline="central" font-family="Arial,sans-serif" font-size="14" font-weight="500" fill="#3C3489">ENSEIGNANT</text>
<line x1="255" y1="197" x2="425" y2="197" stroke="#3D3D3A" stroke-width="0.5"/>
<text x="340" y="211" text-anchor="middle" font-family="Arial,sans-serif" font-size="11" fill="#534AB7">id_enseignant, matricule</text>
<text x="340" y="225" text-anchor="middle" font-family="Arial,sans-serif" font-size="11" fill="#534AB7">type_enseignant, specialite</text>

<!-- PARENT -->
<rect x="490" y="163" width="155" height="70" rx="6" fill="#EEEDFE" stroke="#534AB7" stroke-width="0.5"/>
<text x="567" y="184" text-anchor="middle" dominant-baseline="central" font-family="Arial,sans-serif" font-size="14" font-weight="500" fill="#3C3489">PARENT</text>
<line x1="490" y1="197" x2="645" y2="197" stroke="#3D3D3A" stroke-width="0.5"/>
<text x="567" y="211" text-anchor="middle" font-family="Arial,sans-serif" font-size="11" fill="#534AB7">id_parent, telephone</text>
<text x="567" y="225" text-anchor="middle" font-family="Arial,sans-serif" font-size="11" fill="#534AB7">adresse</text>

<!-- Liens Groupe 1 -->
<!-- UTILISATEUR → ELEVE -->
<line x1="300" y1="100" x2="145" y2="163" stroke="#141413" stroke-width="0.5"/>
<text x="210" y="118" font-family="Arial,sans-serif" font-size="11" fill="#3D3D3A">(0,1)</text>
<text x="130" y="157" font-family="Arial,sans-serif" font-size="11" fill="#3D3D3A">(1,1)</text>
<!-- UTILISATEUR → ENSEIGNANT -->
<line x1="340" y1="100" x2="340" y2="163" stroke="#141413" stroke-width="0.5"/>
<text x="346" y="118" font-family="Arial,sans-serif" font-size="11" fill="#3D3D3A">(0,1)</text>
<text x="346" y="157" font-family="Arial,sans-serif" font-size="11" fill="#3D3D3A">(1,1)</text>
<!-- UTILISATEUR → PARENT -->
<line x1="385" y1="100" x2="535" y2="163" stroke="#141413" stroke-width="0.5"/>
<text x="428" y="118" font-family="Arial,sans-serif" font-size="11" fill="#3D3D3A">(0,1)</text>
<text x="540" y="157" font-family="Arial,sans-serif" font-size="11" fill="#3D3D3A">(1,1)</text>
<!-- SUPERVISE : PARENT → ELEVE (L-shape via bas) -->
<polyline points="95,260 95,282 567,282 567,233" fill="none" stroke="#141413" stroke-width="0.5"/>
<rect x="290" y="272" width="84" height="18" rx="4" fill="#F5F4ED" stroke="#3D3D3A" stroke-width="0.5"/>
<text x="332" y="284" text-anchor="middle" font-family="Arial,sans-serif" font-size="11" fill="#3D3D3A">SUPERVISE</text>
<text x="101" y="275" font-family="Arial,sans-serif" font-size="11" fill="#3D3D3A">(0,N)</text>
<text x="514" y="275" font-family="Arial,sans-serif" font-size="11" fill="#3D3D3A">(0,N)</text>

<!-- ═══════════════════════════════════════════════
     GROUPE 2 — Structure académique
═══════════════════════════════════════════════ -->
<text x="340" y="300" text-anchor="middle" font-style="italic" font-family="Arial,sans-serif" font-size="12" fill="#3D3D3A">Groupe 2 — Structure académique</text>

<!-- ANNEE_SCOLAIRE -->
<rect x="20" y="310" width="155" height="72" rx="6" fill="#E1F5EE" stroke="#0F6E56" stroke-width="0.5"/>
<text x="97" y="331" text-anchor="middle" dominant-baseline="central" font-family="Arial,sans-serif" font-size="12" font-weight="500" fill="#085041">ANNEE_SCOLAIRE</text>
<line x1="20" y1="344" x2="175" y2="344" stroke="#3D3D3A" stroke-width="0.5"/>
<text x="97" y="357" text-anchor="middle" font-family="Arial,sans-serif" font-size="11" fill="#0F6E56">id_annee, libelle</text>
<text x="97" y="371" text-anchor="middle" font-family="Arial,sans-serif" font-size="11" fill="#0F6E56">date_debut, est_courante</text>

<!-- NIVEAU -->
<rect x="255" y="310" width="170" height="84" rx="6" fill="#E1F5EE" stroke="#0F6E56" stroke-width="0.5"/>
<text x="340" y="331" text-anchor="middle" dominant-baseline="central" font-family="Arial,sans-serif" font-size="14" font-weight="500" fill="#085041">NIVEAU</text>
<line x1="255" y1="344" x2="425" y2="344" stroke="#3D3D3A" stroke-width="0.5"/>
<text x="340" y="357" text-anchor="middle" font-family="Arial,sans-serif" font-size="11" fill="#0F6E56">id_niveau, nom, abreviation</text>
<text x="340" y="371" text-anchor="middle" font-family="Arial,sans-serif" font-size="11" fill="#0F6E56">cycle, ordre, a_options</text>

<!-- OPTION -->
<rect x="490" y="310" width="155" height="60" rx="6" fill="#E1F5EE" stroke="#0F6E56" stroke-width="0.5"/>
<text x="567" y="331" text-anchor="middle" dominant-baseline="central" font-family="Arial,sans-serif" font-size="14" font-weight="500" fill="#085041">OPTION</text>
<line x1="490" y1="344" x2="645" y2="344" stroke="#3D3D3A" stroke-width="0.5"/>
<text x="567" y="357" text-anchor="middle" font-family="Arial,sans-serif" font-size="11" fill="#0F6E56">id_option, nom, filiere</text>

<!-- DIVISION -->
<rect x="20" y="428" width="150" height="58" rx="6" fill="#E1F5EE" stroke="#0F6E56" stroke-width="0.5"/>
<text x="95" y="448" text-anchor="middle" dominant-baseline="central" font-family="Arial,sans-serif" font-size="14" font-weight="500" fill="#085041">DIVISION</text>
<line x1="20" y1="461" x2="170" y2="461" stroke="#3D3D3A" stroke-width="0.5"/>
<text x="95" y="474" text-anchor="middle" font-family="Arial,sans-serif" font-size="11" fill="#0F6E56">id_division, section, est_active</text>

<!-- CLASSE_ANNUELLE -->
<rect x="255" y="428" width="170" height="58" rx="6" fill="#E1F5EE" stroke="#0F6E56" stroke-width="0.5"/>
<text x="340" y="448" text-anchor="middle" dominant-baseline="central" font-family="Arial,sans-serif" font-size="12" font-weight="500" fill="#085041">CLASSE_ANNUELLE</text>
<line x1="255" y1="461" x2="425" y2="461" stroke="#3D3D3A" stroke-width="0.5"/>
<text x="340" y="474" text-anchor="middle" font-family="Arial,sans-serif" font-size="11" fill="#0F6E56">id_classe_annuelle, nom</text>

<!-- MATIERE -->
<rect x="490" y="428" width="155" height="58" rx="6" fill="#E1F5EE" stroke="#0F6E56" stroke-width="0.5"/>
<text x="567" y="448" text-anchor="middle" dominant-baseline="central" font-family="Arial,sans-serif" font-size="14" font-weight="500" fill="#085041">MATIERE</text>
<line x1="490" y1="461" x2="645" y2="461" stroke="#3D3D3A" stroke-width="0.5"/>
<text x="567" y="474" text-anchor="middle" font-family="Arial,sans-serif" font-size="11" fill="#0F6E56">id_matiere, nom, code</text>

<!-- TERME -->
<rect x="255" y="518" width="170" height="72" rx="6" fill="#E1F5EE" stroke="#0F6E56" stroke-width="0.5"/>
<text x="340" y="538" text-anchor="middle" dominant-baseline="central" font-family="Arial,sans-serif" font-size="14" font-weight="500" fill="#085041">TERME</text>
<line x1="255" y1="551" x2="425" y2="551" stroke="#3D3D3A" stroke-width="0.5"/>
<text x="340" y="564" text-anchor="middle" font-family="Arial,sans-serif" font-size="11" fill="#0F6E56">id_terme, nom, position</text>
<text x="340" y="578" text-anchor="middle" font-family="Arial,sans-serif" font-size="11" fill="#0F6E56">type_terme, cycle_applicable</text>

<!-- PERIODE -->
<rect x="490" y="518" width="155" height="70" rx="6" fill="#E1F5EE" stroke="#0F6E56" stroke-width="0.5"/>
<text x="567" y="538" text-anchor="middle" dominant-baseline="central" font-family="Arial,sans-serif" font-size="14" font-weight="500" fill="#085041">PERIODE</text>
<line x1="490" y1="551" x2="645" y2="551" stroke="#3D3D3A" stroke-width="0.5"/>
<text x="567" y="564" text-anchor="middle" font-family="Arial,sans-serif" font-size="11" fill="#0F6E56">id_periode, nom, position</text>
<text x="567" y="578" text-anchor="middle" font-family="Arial,sans-serif" font-size="11" fill="#0F6E56">date_debut, date_fin</text>

<!-- Liens Groupe 2 -->
<!-- NIVEAU → CLASSE_ANNUELLE (vertical) -->
<line x1="340" y1="394" x2="340" y2="428" stroke="#3D3D3A" stroke-width="0.5"/>
<text x="346" y="408" font-family="Arial,sans-serif" font-size="11" fill="#3D3D3A">(1,N)</text>
<text x="346" y="424" font-family="Arial,sans-serif" font-size="11" fill="#3D3D3A">(1,1)</text>
<!-- ANNEE_SCOLAIRE → CLASSE_ANNUELLE (diagonal) -->
<line x1="175" y1="346" x2="255" y2="457" stroke="#3D3D3A" stroke-width="0.5"/>
<text x="184" y="368" font-family="Arial,sans-serif" font-size="11" fill="#3D3D3A">(1,N)</text>
<text x="238" y="452" font-family="Arial,sans-serif" font-size="11" fill="#3D3D3A">(1,1)</text>
<!-- OPTION → CLASSE_ANNUELLE (diagonal) -->
<line x1="490" y1="352" x2="425" y2="457" stroke="#3D3D3A" stroke-width="0.5"/>
<text x="450" y="372" font-family="Arial,sans-serif" font-size="11" fill="#3D3D3A">(0,N)</text>
<text x="426" y="452" font-family="Arial,sans-serif" font-size="11" fill="#3D3D3A">(0,1)</text>
<!-- CLASSE_ANNUELLE → DIVISION (horizontal) -->
<line x1="255" y1="457" x2="170" y2="457" stroke="#3D3D3A" stroke-width="0.5"/>
<text x="234" y="450" font-family="Arial,sans-serif" font-size="11" fill="#3D3D3A">(1,N)</text>
<text x="174" y="450" font-family="Arial,sans-serif" font-size="11" fill="#3D3D3A">(1,1)</text>
<!-- PROGRAMME : DIVISION → MATIERE (L-shape via bas) -->
<polyline points="95,486 95,504 567,504 567,486" fill="none" stroke="#3D3D3A" stroke-width="0.5"/>
<rect x="291" y="495" width="78" height="18" rx="4" fill="#F5F4ED" stroke="#3D3D3A" stroke-width="0.5"/>
<text x="330" y="507" text-anchor="middle" font-family="Arial,sans-serif" font-size="11" fill="#3D3D3A">PROGRAMME</text>
<text x="100" y="499" font-family="Arial,sans-serif" font-size="11" fill="#3D3D3A">(0,N)</text>
<text x="526" y="499" font-family="Arial,sans-serif" font-size="11" fill="#3D3D3A">(0,N)</text>
<!-- ANNEE_SCOLAIRE → TERME (diagonal) -->
<line x1="175" y1="355" x2="255" y2="554" stroke="#3D3D3A" stroke-width="0.5"/>
<text x="196" y="415" font-family="Arial,sans-serif" font-size="11" fill="#3D3D3A">(1,N)</text>
<text x="238" y="550" font-family="Arial,sans-serif" font-size="11" fill="#3D3D3A">(1,1)</text>
<!-- TERME → PERIODE (horizontal) -->
<line x1="425" y1="554" x2="490" y2="554" stroke="#3D3D3A" stroke-width="0.5"/>
<text x="432" y="547" font-family="Arial,sans-serif" font-size="11" fill="#3D3D3A">(1,N)</text>
<text x="494" y="547" font-family="Arial,sans-serif" font-size="11" fill="#3D3D3A">(1,1)</text>
<!-- INSCRIT_DANS : ELEVE → DIVISION (via x=190, gap inter-colonnes) -->
<polyline points="170,213 190,213 190,457 170,457" fill="none" stroke="#141413" stroke-width="0.5"/>
<rect x="156" y="326" width="68" height="18" rx="4" fill="#F5F4ED" stroke="#3D3D3A" stroke-width="0.5"/>
<text x="190" y="338" text-anchor="middle" font-family="Arial,sans-serif" font-size="10" fill="#3D3D3A">INSCRIT_DANS</text>
<text x="173" y="205" font-family="Arial,sans-serif" font-size="11" fill="#3D3D3A">(1,1)</text>
<text x="173" y="470" font-family="Arial,sans-serif" font-size="11" fill="#3D3D3A">(0,N)</text>

<!-- ═══════════════════════════════════════════════
     GROUPE 3 — Suivi scolaire
═══════════════════════════════════════════════ -->
<text x="340" y="605" text-anchor="middle" font-style="italic" font-family="Arial,sans-serif" font-size="12" fill="#3D3D3A">Groupe 3 — Suivi scolaire</text>

<!-- AFFECTATION -->
<rect x="20" y="615" width="150" height="72" rx="6" fill="#FAECE7" stroke="#993C1D" stroke-width="0.5"/>
<text x="95" y="636" text-anchor="middle" dominant-baseline="central" font-family="Arial,sans-serif" font-size="13" font-weight="500" fill="#712B13">AFFECTATION</text>
<line x1="20" y1="649" x2="170" y2="649" stroke="#3D3D3A" stroke-width="0.5"/>
<text x="95" y="662" text-anchor="middle" font-family="Arial,sans-serif" font-size="11" fill="#993C1D">id_affectation</text>
<text x="95" y="676" text-anchor="middle" font-family="Arial,sans-serif" font-size="11" fill="#993C1D">heures_hebdo, est_principal</text>

<!-- EVALUATION -->
<rect x="255" y="615" width="170" height="82" rx="6" fill="#FAECE7" stroke="#993C1D" stroke-width="0.5"/>
<text x="340" y="636" text-anchor="middle" dominant-baseline="central" font-family="Arial,sans-serif" font-size="14" font-weight="500" fill="#712B13">EVALUATION</text>
<line x1="255" y1="649" x2="425" y2="649" stroke="#3D3D3A" stroke-width="0.5"/>
<text x="340" y="662" text-anchor="middle" font-family="Arial,sans-serif" font-size="11" fill="#993C1D">id_evaluation, nom, type</text>
<text x="340" y="676" text-anchor="middle" font-family="Arial,sans-serif" font-size="11" fill="#993C1D">date, valeur_max</text>
<text x="340" y="690" text-anchor="middle" font-family="Arial,sans-serif" font-size="11" fill="#993C1D">est_publiee</text>

<!-- NOTE -->
<rect x="490" y="615" width="155" height="60" rx="6" fill="#FAECE7" stroke="#993C1D" stroke-width="0.5"/>
<text x="567" y="636" text-anchor="middle" dominant-baseline="central" font-family="Arial,sans-serif" font-size="14" font-weight="500" fill="#712B13">NOTE</text>
<line x1="490" y1="649" x2="645" y2="649" stroke="#3D3D3A" stroke-width="0.5"/>
<text x="567" y="662" text-anchor="middle" font-family="Arial,sans-serif" font-size="11" fill="#993C1D">id_note, valeur</text>
<text x="567" y="676" text-anchor="middle" font-family="Arial,sans-serif" font-size="11" fill="#993C1D">est_absent</text>

<!-- ABSENCE -->
<rect x="20" y="728" width="150" height="75" rx="6" fill="#FAECE7" stroke="#993C1D" stroke-width="0.5"/>
<text x="95" y="749" text-anchor="middle" dominant-baseline="central" font-family="Arial,sans-serif" font-size="14" font-weight="500" fill="#712B13">ABSENCE</text>
<line x1="20" y1="762" x2="170" y2="762" stroke="#3D3D3A" stroke-width="0.5"/>
<text x="95" y="775" text-anchor="middle" font-family="Arial,sans-serif" font-size="11" fill="#993C1D">id_absence, date, statut</text>
<text x="95" y="789" text-anchor="middle" font-family="Arial,sans-serif" font-size="11" fill="#993C1D">justifiee, justification</text>

<!-- APPRECIATION_BULLETIN -->
<rect x="490" y="728" width="155" height="58" rx="6" fill="#FAECE7" stroke="#993C1D" stroke-width="0.5"/>
<text x="567" y="742" text-anchor="middle" dominant-baseline="central" font-family="Arial,sans-serif" font-size="11" font-weight="500" fill="#712B13">APPRECIATION_BULLETIN</text>
<line x1="490" y1="756" x2="645" y2="756" stroke="#3D3D3A" stroke-width="0.5"/>
<text x="567" y="769" text-anchor="middle" font-family="Arial,sans-serif" font-size="11" fill="#993C1D">id_appreciation</text>
<text x="567" y="783" text-anchor="middle" font-family="Arial,sans-serif" font-size="11" fill="#993C1D">contenu</text>

<!-- Liens Groupe 3 (intra) -->
<!-- EVALUATION → NOTE (horizontal) -->
<line x1="425" y1="652" x2="490" y2="652" stroke="#3D3D3A" stroke-width="0.5"/>
<text x="432" y="645" font-family="Arial,sans-serif" font-size="11" fill="#3D3D3A">(1,N)</text>
<text x="494" y="645" font-family="Arial,sans-serif" font-size="11" fill="#3D3D3A">(1,N)</text>

<!-- Liens cross-groupe 2→3 -->
<!-- DIVISION → AFFECTATION (vertical, x=95) -->
<line x1="95" y1="486" x2="95" y2="615" stroke="#3D3D3A" stroke-width="0.5"/>
<text x="101" y="545" font-family="Arial,sans-serif" font-size="11" fill="#3D3D3A">(1,N)</text>
<text x="101" y="610" font-family="Arial,sans-serif" font-size="11" fill="#3D3D3A">(0,N)</text>
<!-- ENSEIGNANT → AFFECTATION (via x=230, gap colonnes) -->
<polyline points="255,220 230,220 230,651 170,651" fill="none" stroke="#3D3D3A" stroke-width="0.5"/>
<text x="211" y="213" font-family="Arial,sans-serif" font-size="11" fill="#3D3D3A">(0,N)</text>
<text x="173" y="644" font-family="Arial,sans-serif" font-size="11" fill="#3D3D3A">(0,N)</text>
<!-- MATIERE → AFFECTATION (via y=492, x=190) -->
<polyline points="567,486 567,492 190,492 190,651 170,651" fill="none" stroke="#3D3D3A" stroke-width="0.5" stroke-dasharray="4 2"/>
<text x="372" y="486" font-family="Arial,sans-serif" font-size="11" fill="#3D3D3A">(0,N)</text>
<!-- DIVISION → EVALUATION (diagonal) -->
<line x1="170" y1="457" x2="255" y2="648" stroke="#3D3D3A" stroke-width="0.5"/>
<text x="174" y="500" font-family="Arial,sans-serif" font-size="11" fill="#3D3D3A">(1,N)</text>
<text x="238" y="644" font-family="Arial,sans-serif" font-size="11" fill="#3D3D3A">(1,1)</text>
<!-- MATIERE → EVALUATION (via x=450) -->
<polyline points="490,457 450,457 450,656 425,656" fill="none" stroke="#3D3D3A" stroke-width="0.5"/>
<text x="454" y="450" font-family="Arial,sans-serif" font-size="11" fill="#3D3D3A">(1,N)</text>
<text x="428" y="650" font-family="Arial,sans-serif" font-size="11" fill="#3D3D3A">(1,1)</text>
<!-- PERIODE → EVALUATION (diagonal) -->
<line x1="490" y1="554" x2="425" y2="660" stroke="#3D3D3A" stroke-width="0.5"/>
<text x="468" y="573" font-family="Arial,sans-serif" font-size="11" fill="#3D3D3A">(1,N)</text>
<text x="428" y="674" font-family="Arial,sans-serif" font-size="11" fill="#3D3D3A">(1,1)</text>

<!-- Liens cross-groupe 1→3 -->
<!-- ELEVE → NOTE (via marge droite x=658) -->
<polyline points="170,215 658,215 658,652 645,652" fill="none" stroke="#141413" stroke-width="0.5" stroke-dasharray="5 3"/>
<text x="575" y="208" font-family="Arial,sans-serif" font-size="11" fill="#3D3D3A">(1,N)</text>
<!-- ELEVE → ABSENCE (via marge gauche x=5) -->
<polyline points="20,215 5,215 5,765 20,765" fill="none" stroke="#141413" stroke-width="0.5" stroke-dasharray="5 3"/>
<text x="7" y="620" font-family="Arial,sans-serif" font-size="10" fill="#3D3D3A" transform="rotate(-90,7,620)">(1,N) → ABSENCE (1,N)</text>
<!-- DIVISION → ABSENCE (via x=8, marge gauche) -->
<polyline points="22,457 8,457 8,765 20,765" fill="none" stroke="#3D3D3A" stroke-width="0.5" stroke-dasharray="4 2"/>
<text x="12" y="550" font-family="Arial,sans-serif" font-size="10" fill="#3D3D3A" transform="rotate(-90,12,550)">(1,N)</text>
<!-- TERME → APPRECIATION_BULLETIN (via x=455) -->
<polyline points="425,554 455,554 455,757 490,757" fill="none" stroke="#3D3D3A" stroke-width="0.5"/>
<text x="432" y="547" font-family="Arial,sans-serif" font-size="11" fill="#3D3D3A"></text>
<text x="458" y="640" font-family="Arial,sans-serif" font-size="11" fill="#3D3D3A">(1,N)</text>
<text x="493" y="750" font-family="Arial,sans-serif" font-size="11" fill="#3D3D3A">(1,N)</text>
<!-- ELEVE → APPRECIATION_BULLETIN (via marge droite x=663) -->
<polyline points="170,238 663,238 663,757 645,757" fill="none" stroke="#141413" stroke-width="0.5" stroke-dasharray="5 3"/>

<!-- ═══════════════════════════════════════════════
     GROUPE 4 — Communication
═══════════════════════════════════════════════ -->
<text x="340" y="843" text-anchor="middle" font-style="italic" font-family="Arial,sans-serif" font-size="12" fill="#3D3D3A">Groupe 4 — Communication</text>

<!-- MESSAGE -->
<rect x="255" y="853" width="170" height="90" rx="6" fill="#F1EFE8" stroke="#5F5E5A" stroke-width="0.5"/>
<text x="340" y="874" text-anchor="middle" dominant-baseline="central" font-family="Arial,sans-serif" font-size="14" font-weight="500" fill="#444441">MESSAGE</text>
<line x1="255" y1="887" x2="425" y2="887" stroke="#3D3D3A" stroke-width="0.5"/>
<text x="340" y="900" text-anchor="middle" font-family="Arial,sans-serif" font-size="11" fill="#5F5E5A">id_message, sujet, corps</text>
<text x="340" y="914" text-anchor="middle" font-family="Arial,sans-serif" font-size="11" fill="#5F5E5A">est_annonce, id_diffusion</text>
<text x="340" y="928" text-anchor="middle" font-family="Arial,sans-serif" font-size="11" fill="#5F5E5A">lu_le</text>

<!-- UTILISATEUR réf. (Groupe 4) -->
<rect x="20" y="860" width="140" height="42" rx="6" fill="#EEEDFE" stroke="#534AB7" stroke-width="0.5" stroke-dasharray="5 3"/>
<text x="90" y="876" text-anchor="middle" dominant-baseline="central" font-family="Arial,sans-serif" font-size="11" font-weight="500" fill="#3C3489">UTILISATEUR</text>
<text x="90" y="893" text-anchor="middle" font-family="Arial,sans-serif" font-size="10" fill="#534AB7" font-style="italic">(réf. Groupe 1)</text>

<!-- Liens Groupe 4 -->
<!-- UTILISATEUR_ref ENVOIE MESSAGE -->
<line x1="160" y1="881" x2="255" y2="881" stroke="#141413" stroke-width="0.5"/>
<rect x="173" y="871" width="52" height="18" rx="4" fill="#F5F4ED" stroke="#3D3D3A" stroke-width="0.5"/>
<text x="199" y="883" text-anchor="middle" font-family="Arial,sans-serif" font-size="10" fill="#3D3D3A">ENVOIE</text>
<text x="163" y="871" font-family="Arial,sans-serif" font-size="11" fill="#3D3D3A">(1,N)</text>
<text x="258" y="871" font-family="Arial,sans-serif" font-size="11" fill="#3D3D3A">(1,1)</text>

<!-- UTILISATEUR_ref RECOIT MESSAGE -->
<line x1="160" y1="897" x2="255" y2="912" stroke="#141413" stroke-width="0.5"/>
<rect x="175" y="898" width="48" height="18" rx="4" fill="#F5F4ED" stroke="#3D3D3A" stroke-width="0.5"/>
<text x="199" y="910" text-anchor="middle" font-family="Arial,sans-serif" font-size="10" fill="#3D3D3A">RECOIT</text>
<text x="163" y="898" font-family="Arial,sans-serif" font-size="11" fill="#3D3D3A">(0,N)</text>
<text x="258" y="916" font-family="Arial,sans-serif" font-size="11" fill="#3D3D3A">(1,N)</text>

<!-- REPOND_A : auto-référence MESSAGE -->
<path d="M 380,853 Q 450,820 450,898 Q 450,943 425,943 L 340,943" fill="none" stroke="#3D3D3A" stroke-width="0.5"/>
<rect x="436" y="874" width="64" height="18" rx="4" fill="#F5F4ED" stroke="#3D3D3A" stroke-width="0.5"/>
<text x="468" y="886" text-anchor="middle" font-family="Arial,sans-serif" font-size="10" fill="#3D3D3A">REPOND_A</text>
<text x="382" y="847" font-family="Arial,sans-serif" font-size="11" fill="#3D3D3A">(0,N)</text>
<text x="346" y="957" font-family="Arial,sans-serif" font-size="11" fill="#3D3D3A">(0,1)</text>

<!-- Légende -->
<rect x="20" y="930" width="195" height="42" rx="4" fill="#FAFAF8" stroke="#AAAAAA" stroke-width="0.5"/>
<text x="30" y="946" font-family="Arial,sans-serif" font-size="10" fill="#5F5E5A">— — —  lien inter-groupe (référence)</text>
<text x="30" y="962" font-family="Arial,sans-serif" font-size="10" fill="#5F5E5A">────  association directe</text>

</svg>
